<svg width="413" height="190" fill="none" xmlns="http://www.w3.org/2000/svg">
  <g opacity=".38" fill="#242424">
    <path d="M143.509 22.238 100.59 0C58.323 15.214 0 84.652 0 84.652l40.15 22.446C96.38 36.87 143.51 22.238 143.51 22.238ZM287.852 26.727l-44.384-25.46s-21.55 22.53-77.35 49.153c-55.801 26.624-92.889 74.614-92.889 74.614l39.362 22.238s17.429-26.042 82.418-59.109c64.988-33.066 92.843-61.436 92.843-61.436ZM259.637 96.663c-73.23 33.67-108.088 70.893-108.088 70.893L192.42 189.4c21.887-21.948 73.297-47.699 118.334-67.007 45.036-19.307 89.398-65.427 89.398-65.427 33.394 18.519 74.311.374 74.311.374L381.687 5.944c-26.955 31.902-48.82 57.05-122.05 90.72Z"/>
  </g>
</svg>
