<?xml version="1.0" standalone="no"?>
<!DOCTYPE svg PUBLIC "-//W3C//DTD SVG 20010904//EN"
 "http://www.w3.org/TR/2001/REC-SVG-20010904/DTD/svg10.dtd">
<svg version="1.0" xmlns="http://www.w3.org/2000/svg"
 width="257.000000pt" height="257.000000pt" viewBox="0 0 257.000000 257.000000"
 preserveAspectRatio="xMidYMid meet">
<metadata>
Created by potrace 1.14, written by Peter Selinger 2001-2017
</metadata>
<g transform="translate(0.000000,257.000000) scale(0.100000,-0.100000)"
fill="#000000" stroke="none">
<path d="M470 1764 c-36 -20 -96 -61 -135 -92 -64 -52 -242 -223 -309 -298
l-27 -31 108 -62 108 -62 45 53 c52 59 147 157 205 208 40 36 172 133 190 141
6 2 35 17 65 33 l54 29 -114 58 c-63 32 -117 58 -120 58 -3 1 -34 -15 -70 -35z"/>
<path d="M1289 1767 c-50 -42 -64 -52 -144 -103 -44 -28 -143 -84 -219 -123
-76 -40 -174 -96 -217 -127 -79 -55 -282 -242 -299 -275 -9 -15 5 -26 94 -77
l104 -60 42 45 c75 78 210 171 370 257 47 24 105 55 130 69 92 48 231 139 320
208 l92 71 -54 32 c-29 18 -60 35 -68 39 -8 4 -37 21 -65 37 -27 16 -52 29
-55 29 -3 0 -17 -10 -31 -22z"/>
<path d="M2000 1692 c-55 -64 -123 -128 -216 -203 -50 -40 -216 -133 -384
-216 -102 -50 -210 -107 -241 -125 -83 -50 -237 -161 -292 -212 l-49 -43 107
-57 c58 -31 109 -56 113 -56 4 0 18 10 32 21 107 88 294 192 567 317 191 88
327 180 483 328 l45 43 59 -20 c76 -26 174 -27 265 -3 72 18 86 29 54 41 -10
4 -112 59 -228 123 -115 64 -219 122 -230 128 -18 9 -28 1 -85 -66z"/>
</g>
</svg>
