<svg width="57" height="63" fill="none" xmlns="http://www.w3.org/2000/svg">
  <path d="M54.235 59.806c1.86-.393 2.967-2.363 2.043-4.044-2.037-3.706-5.245-6.962-9.35-9.444C41.64 43.122 35.164 41.39 28.5 41.39c-6.664 0-13.141 1.732-18.428 4.928C5.967 48.8 2.76 52.056.722 55.762c-.924 1.68.183 3.651 2.043 4.044a124.564 124.564 0 0 0 51.47 0ZM45.317 17.541c0 9.408-7.53 17.035-16.817 17.035-9.288 0-16.817-7.627-16.817-17.035C11.683 8.133 19.213.506 28.5.506c9.288 0 16.817 7.627 16.817 17.035Z" fill="#fff"/>
</svg>
